<?xml version="1.0" encoding="UTF-8" standalone="no"?>
<!-- Created with Inkscape (http://www.inkscape.org/) -->

<svg
   xmlns:dc="http://purl.org/dc/elements/1.1/"
   xmlns:cc="http://creativecommons.org/ns#"
   xmlns:rdf="http://www.w3.org/1999/02/22-rdf-syntax-ns#"
   xmlns:svg="http://www.w3.org/2000/svg"
   xmlns="http://www.w3.org/2000/svg"
   xmlns:sodipodi="http://sodipodi.sourceforge.net/DTD/sodipodi-0.dtd"
   xmlns:inkscape="http://www.inkscape.org/namespaces/inkscape"
   width="24"
   height="24"
   viewBox="0 0 24.000001 24.000001"
   id="svg2"
   version="1.1"
   inkscape:version="0.91 r13725"
   sodipodi:docname="favicon.svg">
  <defs
     id="defs4">
    <inkscape:perspective
       id="perspective10"
       inkscape:persp3d-origin="372.04726 : 350.7874 : 1"
       inkscape:vp_z="744.0945 : 526.18111 : 1"
       inkscape:vp_y="0 : 1000 : 0"
       inkscape:vp_x="0 : 526.1811 : 1"
       sodipodi:type="inkscape:persp3d" />
    <inkscape:perspective
       sodipodi:type="inkscape:persp3d"
       inkscape:vp_x="0 : 150 : 1"
       inkscape:vp_y="0 : 1000 : 0"
       inkscape:vp_z="300.00001 : 150 : 1"
       inkscape:persp3d-origin="150.00001 : 100 : 1"
       id="perspective3192" />
  </defs>
  <sodipodi:namedview
     id="base"
     pagecolor="#ffffff"
     bordercolor="#666666"
     borderopacity="1.0"
     inkscape:pageopacity="0.0"
     inkscape:pageshadow="2"
     inkscape:zoom="35.333333"
     inkscape:cx="7.2145862"
     inkscape:cy="11.999978"
     inkscape:document-units="px"
     inkscape:current-layer="svg2"
     showgrid="false"
     units="px"
     inkscape:window-width="1920"
     inkscape:window-height="1017"
     inkscape:window-x="-8"
     inkscape:window-y="-8"
     inkscape:window-maximized="1" />
  <metadata
     id="metadata7">
    <rdf:RDF>
      <cc:Work
         rdf:about="">
        <dc:format>image/svg+xml</dc:format>
        <dc:type
           rdf:resource="http://purl.org/dc/dcmitype/StillImage" />
        <dc:title></dc:title>
      </cc:Work>
    </rdf:RDF>
  </metadata>
  <g
     inkscape:label="Layer 1"
     inkscape:groupmode="layer"
     id="layer1"
     transform="translate(0,-1028.3622)">
    <g
       id="layer1-3"
       inkscape:label="Ebene 1"
       transform="matrix(0.0836237,0,0,0.0836237,-0.33739468,1027.8448)">
      <path
         d="m 181.47827,47.962209 c -7.236,-0.683 -14.89,2.284 -19.428,8.043 -3.208,3.591 -4.593,8.392 -5.133,13.082 0.233,7.19 3.874,14.214996 9.905,18.223996 5.977,3.820002 13.773,4.863002 20.395,2.125 11.093,-3.828 17.619,-18.019996 12.053,-28.666996 -3.072,-7.131 -10.182,-11.883 -17.792,-12.807 z"
         id="path3233"
         inkscape:connector-curvature="0" />
      <path
         d="m 82.70561,77.71586 c 0.19152,-0.394724 0.57388,-1.183408 0.7654,-1.578132 3.19864,4.904987 5.71938,10.177056 8.93988,15.065418 8.77614,9.706854 20.28471,18.451774 34.07255,20.243374 11.64933,0.74401 21.8282,-5.58688 32.19153,-9.58361 5.55515,-1.974954 12.1804,-4.103824 17.76683,-1.05106 2.85568,2.21791 4.87593,5.92012 3.91675,9.46273 -1.1144,7.90171 -9.50927,12.13209 -16.72064,14.52572 -9.13253,2.65083 -18.69329,4.82667 -28.31951,4.00758 C 117.29617,126.7165 101.71016,115.52999 91.79497,101.57674 87.11731,94.328276 83.10093,86.330154 82.70561,77.71586 Z"
         id="path3235"
         inkscape:connector-curvature="0" />
      <path
         d="m 213.39316,205.21182 c 2.42759,-3.74323 1.54244,-8.69522 0.10408,-12.8911 -4.8876,-4.61483 -11.91912,-5.0491 -17.76959,-3.41383 -11.28296,2.99461 -21.73627,8.07652 -32.11957,13.06146 -10.48724,5.0762 -19.97644,12.00244 -27.76876,20.53782 -14.44886,16.82191 -24.04799,38.73274 -23.29554,61.9218 0.23982,0.53963 0.71769,1.61927 0.95662,2.15907 3.56528,-10.0478 7.13029,-20.32971 13.4292,-28.92881 6.08529,-8.71322 13.04795,-16.85706 21.20057,-23.69644 4.51226,-3.88136 9.40753,-7.54685 15.19305,-9.46876 11.87736,-3.62987 24.3125,-5.60833 36.07975,-9.54759 5.44101,-1.92101 11.0439,-4.6119 13.99019,-9.73362 z"
         id="path3237"
         inkscape:connector-curvature="0" />
      <path
         d="m 170.00196,190.70516 c 2.42635,-5.07534 0.19864,-10.33219 -2.07479,-14.73795 -2.60743,-5.06654 -7.19785,-8.69888 -11.89633,-11.8517 -9.47817,-6.36399 -20.8313,-10.45523 -32.7359,-10.67761 -5.32987,-0.15607 -10.81589,1.48698 -15.2205,4.72337 -3.94121,3.44063 -6.49392,8.02614 -8.88282,12.50614 -3.90758,7.41994 -6.51118,15.32309 -9.02914,23.19385 -3.65554,10.42515 -4.99724,21.29631 -6.64082,32.02034 0.21136,0.32251 0.6331,0.96774 0.84541,1.29004 8.70596,-14.86782 15.90606,-30.54454 26.02952,-44.66212 2.52758,-3.36002 4.99405,-6.98087 8.71212,-9.22154 6.94425,-0.40915 11.4538,5.00486 16.4239,8.52315 7.13499,5.80803 14.25031,12.77276 24.04223,14.16219 3.84572,-0.0644 8.3259,-1.80144 10.42712,-5.26816 z"
         id="path3239"
         inkscape:connector-curvature="0" />
      <path
         id="path3241"
         d="m 160.10814,15.102129 c -0.2887,0.324132 -0.86567,0.971503 -1.15437,1.295636 5.70385,0.787251 11.48659,0.84168 17.18351,1.654488 12.21575,3.669283 24.58746,10.084073 31.45823,21.263969 5.10045,9.755593 3.16615,21.088697 3.4387,31.641815 0.2994,5.589511 0.86384,12.164603 5.77786,15.758118 3.11379,1.572418 7.26949,1.826514 10.14879,-0.426817 6.81108,-4.141277 7.49919,-13.089363 6.95478,-20.276882 -1.03777,-8.949226 -2.67284,-18.076954 -7.07453,-26.056118 -8.75158,-14.714137 -24.90534,-23.665888 -41.4407,-26.609706 -8.41033,-1.120909 -17.2561,-1.369405 -25.29227,1.755497 z"
         inkscape:connector-curvature="0" />
      <path
         id="path2396"
         d="m 133.74301,6.1875 44.84375,24.5 3.34375,1.8125 -3.03125,2.3125 c -27.19221,20.626111 -42.33488,45.080443 -52.375,71.34375 -1.74774,0.051 -3.48093,0.0285 -5.21875,-0.0625 9.94838,-26.563405 24.94587,-51.660605 51.65625,-72.875 l -41.5625,-22.6875 2.34375,-4.34375 z m -19.34375,121.09375 c 1.54496,0.56999 3.10861,1.08695 4.6875,1.53125 -1.75665,6.18643 -3.36364,12.42417 -4.875,18.71875 l -0.25,0.96875 -0.84375,0.53125 C 88.3459,164.44119 75.6114,185.70526 66.52426,196.84375 l 39.9375,92.03125 1.25,0 0,3.3125 -4.71875,1 -41.53125,-95.71875 -0.625,-1.40625 1,-1.1875 c 8.30745,-9.8182 21.72014,-32.87385 47.8125,-49.4375 1.46784,-6.07467 3.03051,-12.13542 4.75,-18.15625 z"
         style="fill:#000000;fill-opacity:1;fill-rule:evenodd;stroke:none"
         inkscape:connector-curvature="0" />
    </g>
  </g>
</svg>
